<svg width="131" height="113" viewBox="0 0 131 113" fill="none" xmlns="http://www.w3.org/2000/svg">
<path d="M125.906 3.66079C127.291 4.16126 128.008 5.68983 127.508 7.07495C127.008 8.46006 125.479 9.17722 124.094 8.67675C122.709 8.17628 121.992 6.64771 122.492 5.26259C122.992 3.87747 124.521 3.16032 125.906 3.66079ZM18.1468 112.121L12.7362 110.106L17.1861 106.428L18.1468 112.121ZM124.954 6.66667C124.261 6.60291 123.57 6.54174 122.884 6.48313L122.969 5.48675C123.658 5.54555 124.35 5.60691 125.046 5.67087L124.954 6.66667ZM118.804 6.16206C117.458 6.06518 116.125 5.9784 114.806 5.90155L114.864 4.90324C116.188 4.98036 117.525 5.06744 118.876 5.16464L118.804 6.16206ZM110.748 5.69441C109.373 5.63434 108.014 5.58534 106.67 5.54721L106.699 4.54761C108.048 4.58589 109.412 4.63508 110.791 4.69536L110.748 5.69441ZM102.683 5.46522C101.3 5.44775 99.9332 5.44212 98.5829 5.4481L98.5784 4.44811C99.9345 4.44211 101.307 4.44776 102.696 4.4653L102.683 5.46522ZM94.535 5.50166C93.1828 5.53168 91.8479 5.57369 90.53 5.62744L90.4892 4.62827C91.8134 4.57426 93.1545 4.53206 94.5128 4.50191L94.535 5.50166ZM86.4338 5.83543C85.0872 5.91753 83.7592 6.0123 82.4497 6.11947L82.3681 5.1228C83.6846 5.01506 85.0195 4.91979 86.373 4.83728L86.4338 5.83543ZM78.3756 6.49878C77.0208 6.64051 75.6869 6.79599 74.3736 6.96488L74.246 5.97304C75.5673 5.80314 76.909 5.64675 78.2715 5.50421L78.3756 6.49878ZM70.3643 7.53156C69.0095 7.74076 67.6778 7.96479 66.3691 8.20323L66.1899 7.21943C67.5076 6.97935 68.8481 6.75382 70.2117 6.54327L70.3643 7.53156ZM62.4163 8.98155C61.0716 9.26664 59.7527 9.56761 58.4593 9.88395L58.2217 8.91258C59.5253 8.59375 60.8543 8.29049 62.2089 8.00329L62.4163 8.98155ZM54.5637 10.9041C53.242 11.2738 51.9487 11.6604 50.6837 12.0632L50.3803 11.1103C51.6568 10.7039 52.9614 10.3139 54.2943 9.94106L54.5637 10.9041ZM46.8592 13.3604C45.5758 13.8234 44.3239 14.304 43.1028 14.8015L42.7255 13.8755C43.9593 13.3727 45.224 12.8873 46.5199 12.4197L46.8592 13.3604ZM39.3793 16.4141C38.1484 16.9801 36.9519 17.5643 35.7895 18.1659L35.3299 17.2778C36.5063 16.669 37.7167 16.0779 38.9615 15.5055L39.3793 16.4141ZM32.2263 20.1252C31.0465 20.8141 29.9057 21.5222 28.8034 22.2483L28.2533 21.4132C29.3709 20.677 30.527 19.9594 31.722 19.2617L32.2263 20.1252ZM25.5267 24.5424C24.4242 25.3628 23.3653 26.2029 22.3492 27.0613L21.7038 26.2973C22.7359 25.4255 23.8109 24.5727 24.9297 23.7401L25.5267 24.5424ZM19.3587 29.7568C18.3813 30.6974 17.4503 31.6568 16.5646 32.6332L15.8239 31.9614C16.7249 30.968 17.6717 29.9925 18.6652 29.0363L19.3587 29.7568ZM13.9694 35.7053C13.1295 36.7747 12.3392 37.8615 11.5974 38.9639L10.7678 38.4056C11.5233 37.2829 12.3279 36.1763 13.1829 35.0877L13.9694 35.7053ZM9.47925 42.381C8.81143 43.5547 8.19442 44.7432 7.62696 45.9443L6.72278 45.5171C7.30101 44.2932 7.9297 43.0822 8.61009 41.8864L9.47925 42.381ZM6.05127 49.6377C5.57006 50.8965 5.13982 52.1665 4.75921 53.4455L3.80075 53.1603C4.18851 51.8573 4.62687 50.5633 5.1172 49.2807L6.05127 49.6377ZM3.75727 57.3421C3.47138 58.6555 3.23514 59.9759 3.04717 61.3008L2.05708 61.1604C2.24845 59.8115 2.48898 58.467 2.78015 57.1294L3.75727 57.3421ZM2.62568 65.301C2.53268 66.6399 2.48704 67.9811 2.48736 69.3221L1.48736 69.3224C1.48703 67.9585 1.53345 66.5941 1.62809 65.2317L2.62568 65.301ZM2.62495 73.345C2.71587 74.6838 2.85135 76.02 3.03 77.3513L2.03888 77.4843C1.85737 76.1317 1.71966 74.7737 1.62725 73.4127L2.62495 73.345ZM3.69311 81.3234C3.95598 82.6393 4.26041 83.948 4.60497 85.2468L3.63841 85.5032C3.28859 84.1846 2.97946 82.8558 2.71249 81.5192L3.69311 81.3234ZM5.75643 89.1078C6.17907 90.3825 6.6403 91.6451 7.1387 92.8931L6.21002 93.264C5.70428 91.9976 5.2362 90.7163 4.80724 89.4225L5.75643 89.1078ZM8.7435 96.5899C9.31474 97.8063 9.92173 99.0056 10.563 100.186L9.6844 100.663C9.03377 99.466 8.41794 98.2491 7.83835 97.015L8.7435 96.5899ZM12.5907 103.669C13.3012 104.811 14.0449 105.931 14.8201 107.026L14.0038 107.604C13.2171 106.492 12.4625 105.356 11.7416 104.197L12.5907 103.669ZM126.812 1.15281C129.583 2.15375 131.017 5.21089 130.016 7.98113C129.015 10.7514 125.958 12.1857 123.188 11.1847C120.417 10.1838 118.983 7.12665 119.984 4.35641C120.985 1.58618 124.042 0.151877 126.812 1.15281ZM18.1468 112.121L7.32554 108.092L16.2255 100.735L18.1468 112.121ZM124.908 7.16457C124.216 7.10091 123.527 7.03984 122.841 6.98132L123.011 4.98856C123.701 5.04745 124.395 5.10891 125.092 5.17297L124.908 7.16457ZM118.768 6.66077C117.424 6.56406 116.094 6.47742 114.777 6.4007L114.893 4.40409C116.219 4.48134 117.559 4.56857 118.912 4.66593L118.768 6.66077ZM110.726 6.19393C109.354 6.13398 107.997 6.08506 106.656 6.047L106.713 4.04781C108.064 4.08616 109.431 4.13544 110.813 4.19584L110.726 6.19393ZM102.677 5.96518C101.296 5.94775 99.9325 5.94213 98.5851 5.9481L98.5762 3.94812C99.9352 3.9421 101.311 3.94777 102.702 3.96534L102.677 5.96518ZM94.5461 6.00154C93.197 6.03149 91.8651 6.0734 90.5504 6.12703L90.4689 4.12869C91.7962 4.07455 93.1404 4.03225 94.5017 4.00203L94.5461 6.00154ZM86.4643 6.3345C85.121 6.41639 83.7964 6.51092 82.4904 6.6178L82.3273 4.62447C83.6473 4.51644 84.9857 4.42093 86.3426 4.33821L86.4643 6.3345ZM78.4276 6.99606C77.0767 7.1374 75.7467 7.29242 74.4373 7.46079L74.1823 5.47713C75.5075 5.30671 76.8532 5.14987 78.2195 5.00692L78.4276 6.99606ZM70.4406 8.0257C69.0901 8.23423 67.7629 8.45752 66.4588 8.69513L66.1003 6.72753C67.4225 6.48662 68.7674 6.26036 70.1354 6.04913L70.4406 8.0257ZM62.52 9.47067C61.1803 9.75472 59.8664 10.0545 58.5781 10.3696L58.1029 8.4269C59.4116 8.10682 60.7456 7.80241 62.1052 7.51416L62.52 9.47067ZM54.6984 11.3856C53.3823 11.7538 52.0947 12.1386 50.8354 12.5396L50.2286 10.6339C51.5109 10.2256 52.8211 9.83397 54.1596 9.45954L54.6984 11.3856ZM47.0289 13.8307C45.7518 14.2915 44.5061 14.7697 43.2915 15.2646L42.5368 13.4124C43.777 12.9071 45.048 12.4192 46.3502 11.9494L47.0289 13.8307ZM39.5882 16.8684C38.3642 17.4312 37.1747 18.012 36.0193 18.61L35.1001 16.8338C36.2835 16.2213 37.5009 15.6268 38.7526 15.0512L39.5882 16.8684ZM32.4784 20.557C31.3062 21.2414 30.1731 21.9447 29.0784 22.6659L27.9782 20.9957C29.1035 20.2544 30.2672 19.5321 31.4699 18.8299L32.4784 20.557ZM25.8252 24.9435C24.7308 25.7579 23.68 26.5916 22.6718 27.4432L21.3812 25.9154C22.4212 25.0368 23.5043 24.1776 24.6312 23.339L25.8252 24.9435ZM19.7054 30.117C18.7361 31.0499 17.813 32.0011 16.935 32.9691L15.4536 31.6254C16.3622 30.6236 17.3169 29.64 18.3185 28.676L19.7054 30.117ZM14.3626 36.0142C13.5302 37.0739 12.7472 38.1509 12.0123 39.243L10.353 38.1265C11.1153 36.9936 11.9272 35.877 12.7897 34.7788L14.3626 36.0142ZM9.91383 42.6282C9.25229 43.7909 8.64112 44.9681 8.07905 46.1579L6.2707 45.3036C6.85431 44.0682 7.48883 42.846 8.17551 41.6392L9.91383 42.6282ZM6.51831 49.8163C6.04166 51.0631 5.61548 52.3211 5.23843 53.5881L3.32152 53.0177C3.71285 51.7027 4.15527 50.3967 4.65016 49.1021L6.51831 49.8163ZM4.24583 57.4484C3.96258 58.7497 3.72849 60.0581 3.54221 61.3711L1.56204 61.0902C1.7551 59.7293 1.99779 58.3728 2.29159 57.0231L4.24583 57.4484ZM3.12448 65.3356C3.03229 66.6628 2.98704 67.9924 2.98736 69.322L0.987358 69.3225C0.987028 67.9472 1.03384 66.5712 1.12929 65.197L3.12448 65.3356ZM3.12381 73.3111C3.21397 74.6388 3.34834 75.9642 3.52556 77.2848L1.54332 77.5508C1.36038 76.1875 1.22156 74.8186 1.1284 73.4466L3.12381 73.3111ZM4.18343 81.2254C4.44425 82.5311 4.74632 83.8296 5.08826 85.1186L3.15512 85.6314C2.80268 84.3029 2.4912 82.964 2.22217 81.6172L4.18343 81.2254ZM6.23102 88.9505C6.65051 90.2157 7.10831 91.4689 7.60305 92.7077L5.74568 93.4494C5.23626 92.1738 4.76476 90.8832 4.33265 89.5799L6.23102 88.9505ZM9.19607 96.3774C9.76315 97.5848 10.3657 98.7755 11.0023 99.9468L9.24509 100.902C8.58978 99.6961 7.96953 98.4705 7.38577 97.2276L9.19607 96.3774ZM13.0152 103.404C13.7206 104.538 14.4587 105.65 15.2283 106.738L13.5956 107.893C12.8032 106.773 12.0432 105.628 11.3171 104.461L13.0152 103.404Z" fill="#F1C93B"/>
</svg>
